<svg xmlns="http://www.w3.org/2000/svg"  viewBox="0 0 100 100" width="100px" height="100px"><path fill="#eaa871" d="M49.668,80.984H49.3c-2.374,0-4.316-1.942-4.316-4.316V23.3c0-2.374,1.942-4.316,4.316-4.316h0.368c2.374,0,4.316,1.942,4.316,4.316v53.368C53.984,79.042,52.042,80.984,49.668,80.984z"/><path fill="#1f212b" d="M49.668,81.984H49.3c-2.931,0-5.316-2.385-5.316-5.315V23.3c0-2.931,2.385-5.316,5.316-5.316h0.368c2.931,0,5.316,2.385,5.316,5.316v53.368C54.984,79.599,52.599,81.984,49.668,81.984z M49.3,19.984c-1.829,0-3.316,1.487-3.316,3.316v53.369c0,1.828,1.487,3.315,3.316,3.315h0.368c1.829,0,3.316-1.487,3.316-3.316V23.3c0-1.829-1.487-3.316-3.316-3.316H49.3z"/><path fill="#eaa871" d="M76.784,33.984H41.138c-3.791,0-6.892-3.375-6.892-7.5v0c0-4.125,3.101-7.5,6.892-7.5h35.645l6.892,7.5v0L76.784,33.984z"/><path fill="#1f212b" d="M76.784,34.984H41.138c-4.352,0-7.892-3.813-7.892-8.5s3.54-8.5,7.892-8.5h35.646c0.28,0,0.547,0.117,0.736,0.323l6.892,7.5c0.352,0.383,0.352,0.971,0,1.354l-6.892,7.5C77.331,34.867,77.064,34.984,76.784,34.984z M41.138,19.984c-3.249,0-5.892,2.916-5.892,6.5s2.643,6.5,5.892,6.5h35.207l5.973-6.5l-5.973-6.5H41.138z"/><path fill="#c17d48" d="M49.984 25.484A1.5 1.5 0 1 0 49.984 28.484A1.5 1.5 0 1 0 49.984 25.484Z"/><path fill="#1f212b" d="M49.984,28.984c-1.103,0-2-0.897-2-2s0.897-2,2-2c1.103,0,2,0.897,2,2S51.087,28.984,49.984,28.984z M49.984,25.984c-0.551,0-1,0.449-1,1s0.449,1,1,1s1-0.449,1-1S50.536,25.984,49.984,25.984z"/><path fill="#eaa871" d="M23.216,36.984h35.645c3.791,0,6.892,3.375,6.892,7.5v0c0,4.125-3.101,7.5-6.892,7.5H23.216l-6.892-7.5v0L23.216,36.984z"/><path fill="#1f212b" d="M58.862,52.984H23.216c-0.28,0-0.547-0.117-0.736-0.323l-6.892-7.5c-0.352-0.383-0.352-0.971,0-1.354l6.892-7.5c0.189-0.206,0.457-0.323,0.736-0.323h35.646c4.352,0,7.892,3.813,7.892,8.5S63.214,52.984,58.862,52.984z M23.655,50.984h35.207c3.249,0,5.892-2.916,5.892-6.5s-2.643-6.5-5.892-6.5H23.655l-5.973,6.5L23.655,50.984z"/><path fill="#c17d48" d="M49.984 42.484A1.5 1.5 0 1 0 49.984 45.484A1.5 1.5 0 1 0 49.984 42.484Z"/><path fill="#1f212b" d="M49.984 45.984c-1.103 0-2-.897-2-2s.897-2 2-2c1.103 0 2 .897 2 2S51.087 45.984 49.984 45.984zM49.984 42.984c-.551 0-1 .449-1 1s.449 1 1 1 1-.449 1-1S50.536 42.984 49.984 42.984zM73.484 22.984c-.275 0-.498-.179-.5-.401-.002-.223.221-.405.497-.406l2-.009c.001 0 .002 0 .003 0 .275 0 .498.179.5.401.002.223-.221.405-.497.406l-2 .009C73.486 22.984 73.485 22.984 73.484 22.984zM71.484 22.983c-.276 0-.5-.179-.5-.402v-.003c0-.223.224-.403.5-.403s.5.18.5.403C71.984 22.801 71.761 22.983 71.484 22.983zM57.484 22.984c-.274 0-.498-.179-.5-.401-.002-.223.221-.405.496-.406l12-.068c.002 0 .003 0 .004 0 .274 0 .498.179.5.401.002.223-.221.405-.496.406l-12 .068C57.486 22.984 57.485 22.984 57.484 22.984zM28.484 39.984c-.275 0-.498-.18-.5-.403-.002-.224.221-.407.497-.409l6-.032c.313-.011.501.179.503.403s-.221.407-.497.409l-6 .032C28.486 39.984 28.485 39.984 28.484 39.984zM25.484 39.984c-.274 0-.498-.215-.5-.481-.002-.268.22-.487.496-.489l1-.008c.267.002.501.214.504.481s-.22.486-.496.489l-1 .008C25.487 39.984 25.486 39.984 25.484 39.984z"/></svg>